<?xml version="1.0" encoding="UTF-8" standalone="no"?>
<svg
   xmlns:dc="http://purl.org/dc/elements/1.1/"
   xmlns:cc="http://creativecommons.org/ns#"
   xmlns:rdf="http://www.w3.org/1999/02/22-rdf-syntax-ns#"
   xmlns:svg="http://www.w3.org/2000/svg"
   xmlns="http://www.w3.org/2000/svg"
   xmlns:sodipodi="http://sodipodi.sourceforge.net/DTD/sodipodi-0.dtd"
   xmlns:inkscape="http://www.inkscape.org/namespaces/inkscape"
   version="1.1"
   id="Capa_1"
   x="0px"
   y="0px"
   width="357px"
   height="357px"
   viewBox="0 0 357 357"
   style="enable-background:new 0 0 357 357;"
   xml:space="preserve"
   sodipodi:docname="close.svg"
   inkscape:version="1.0.2-2 (e86c870879, 2021-01-15)"><metadata
   id="metadata42"><rdf:RDF><cc:Work
       rdf:about=""><dc:format>image/svg+xml</dc:format><dc:type
         rdf:resource="http://purl.org/dc/dcmitype/StillImage" /><dc:title></dc:title></cc:Work></rdf:RDF></metadata><defs
   id="defs40" /><sodipodi:namedview
   pagecolor="#ffffff"
   bordercolor="#666666"
   borderopacity="1"
   objecttolerance="10"
   gridtolerance="10"
   guidetolerance="10"
   inkscape:pageopacity="0"
   inkscape:pageshadow="2"
   inkscape:window-width="1920"
   inkscape:window-height="1001"
   id="namedview38"
   showgrid="false"
   inkscape:zoom="0.82198688"
   inkscape:cx="49.492842"
   inkscape:cy="270.11821"
   inkscape:window-x="-9"
   inkscape:window-y="-9"
   inkscape:window-maximized="1"
   inkscape:current-layer="Capa_1" />
<g
   id="g5">
	<g
   id="close">
		<polygon
   points="357,35.7 321.3,0 178.5,142.8 35.7,0 0,35.7 142.8,178.5 0,321.3 35.7,357 178.5,214.2 321.3,357 357,321.3     214.2,178.5   "
   id="polygon2" />
	</g>
</g>
<g
   id="g7">
</g>
<g
   id="g9">
</g>
<g
   id="g11">
</g>
<g
   id="g13">
</g>
<g
   id="g15">
</g>
<g
   id="g17">
</g>
<g
   id="g19">
</g>
<g
   id="g21">
</g>
<g
   id="g23">
</g>
<g
   id="g25">
</g>
<g
   id="g27">
</g>
<g
   id="g29">
</g>
<g
   id="g31">
</g>
<g
   id="g33">
</g>
<g
   id="g35">
</g>
<path
   style="fill:#412233;fill-opacity:0.910931;stroke-width:1.21656"
   d="M 18.464255,338.23961 1.4587558,321.20151 72.613788,250.03868 143.76882,178.87584 72.298791,107.39811 0.82876278,35.920384 18.160972,18.588174 35.493182,1.2559653 106.97093,72.726011 l 71.47774,71.470039 71.47775,-71.470039 71.47775,-71.4700457 17.33221,17.3322087 17.3322,17.33221 -71.47003,71.477726 -71.47003,71.47773 71.16053,71.16832 71.16051,71.16832 -17.33215,17.33214 -17.33213,17.33215 -71.16831,-71.16051 -71.1683,-71.1605 -70.86874,70.86098 c -38.977812,38.97353 -71.148069,70.86098 -71.489461,70.86098 -0.341394,0 -8.27319,-7.66716 -17.626214,-17.03811 z"
   id="path867" /></svg>
